# xmcd
#
# Track frame offsets: 
#        150
#        8185
#        29532
#        39422
#        56837
#        64517
#        72172
#        83117
#        87835
#        98920
#        109480
#        117605
#        131487
#        139872
#        151505
#
# Disc length: 2185 seconds
#
# Revision: 0
# Processed by: cddbd v1.5.2PL0 Copyright (c) Steve Scherf et al.
# Submitted via: ExactAudioCopy v1.0b4
#
DISCID=c808870f
DTITLE=Blind Willie McTell - Last Session
DYEAR=1900
DGENRE=Blues
TTITLE0=Baby, It Must Be Love
TTITLE1=The Dyin' Crapshooter's Blues
TTITLE2=Don't Forget It
TTITLE3=Kill It Kid
TTITLE4=That Will Never Happen No More
TTITLE5=Goodbye Blues
TTITLE6=Salty Dog
TTITLE7=Early Life
TTITLE8=Beedle Um Bum
TTITLE9=A Married Man's A Fool
TTITLE10=A To Z Blues
TTITLE11=Wabash Cannonball
TTITLE12=Pal Of Mine
TTITLE13=Kill It Kid
TTITLE14=Broke Down Engine Blues
EXTD=
EXTT0=
EXTT1=
EXTT2=
EXTT3=
EXTT4=
EXTT5=
EXTT6=
EXTT7=
EXTT8=
EXTT9=
EXTT10=
EXTT11=
EXTT12=
EXTT13=
EXTT14=
PLAYORDER=
